<svg xmlns="http://www.w3.org/2000/svg" width="99" height="72" viewBox="0 0 99 72">
  <g fill="none" fill-rule="evenodd">
    <g id="logo" fill="#000" transform="translate(0 31)">
      <path d="M61.416 23.496C55.664 27.742 47.326 30 40.144 30c-10.063 0-19.126-3.721-25.984-9.916-.538-.486-.058-1.15.59-.774 7.398 4.307 16.548 6.901 25.999 6.901 6.375 0 13.383-1.323 19.831-4.06.972-.412 1.788.641.836 1.345"></path>
      <path d="M63.81 20.762c-.736-.942-4.863-.446-6.718-.224-.561.067-.648-.424-.142-.78 3.293-2.313 8.687-1.645 9.314-.87.632.781-.166 6.192-3.25 8.774-.476.397-.927.185-.717-.34.695-1.734 2.25-5.617 1.513-6.56M57.223 3.417V1.169a.555.555 0 0 1 .57-.57h10.071a.56.56 0 0 1 .58.567v1.928c-.002.323-.275.745-.757 1.415l-5.217 7.45c1.936-.045 3.984.246 5.744 1.235.397.223.503.553.534.877v2.399c0 .33-.362.713-.742.513-3.1-1.624-7.213-1.801-10.64.02-.351.187-.717-.19-.717-.52v-2.28c0-.366.007-.99.375-1.545l6.044-8.675h-5.263c-.322 0-.58-.23-.582-.566M20.486 17.456h-3.064a.577.577 0 0 1-.548-.518l.002-15.73c0-.316.264-.567.591-.567h2.854a.576.576 0 0 1 .556.528v2.053h.058C21.68 1.236 23.08.31 24.967.31c1.917 0 3.118.927 3.976 2.913C29.687 1.236 31.374.31 33.176.31c1.287 0 2.689.53 3.547 1.721.972 1.325.772 3.244.772 4.933l-.003 9.927a.578.578 0 0 1-.59.566h-3.06a.574.574 0 0 1-.55-.565l-.001-8.34c0-.66.057-2.316-.087-2.945-.228-1.06-.914-1.358-1.8-1.358-.745 0-1.517.497-1.832 1.29-.314.796-.286 2.12-.286 3.013v8.339a.578.578 0 0 1-.59.566h-3.06a.575.575 0 0 1-.551-.565l-.003-8.34c0-1.754.286-4.335-1.887-4.335-2.203 0-2.117 2.515-2.117 4.335l-.001 8.339a.578.578 0 0 1-.591.566M77.143 3.52c-2.26 0-2.402 3.078-2.402 4.998 0 1.92-.029 6.025 2.374 6.025 2.374 0 2.488-3.31 2.488-5.329 0-1.324-.057-2.913-.458-4.17-.343-1.094-1.03-1.523-2.002-1.523zM77.115.31c4.548 0 7.007 3.907 7.007 8.872 0 4.799-2.717 8.607-7.007 8.607-4.462 0-6.893-3.907-6.893-8.773 0-4.9 2.46-8.706 6.893-8.706zM90.02 17.456h-3.053a.575.575 0 0 1-.55-.565l-.005-15.736A.58.58 0 0 1 87 .64h2.842a.583.583 0 0 1 .545.44v2.406h.058C91.303 1.335 92.503.309 94.62.309c1.373 0 2.717.496 3.575 1.854.801 1.258.801 3.376.801 4.9v9.898a.581.581 0 0 1-.587.495h-3.071a.577.577 0 0 1-.546-.495v-8.54c0-1.723.2-4.239-1.916-4.239-.744 0-1.43.497-1.773 1.258-.43.96-.487 1.92-.487 2.98v8.47a.586.586 0 0 1-.596.566M52.283 17.417a.633.633 0 0 1-.723.071c-1.018-.846-1.2-1.237-1.757-2.042-1.682 1.713-2.872 2.228-5.051 2.228-2.58 0-4.586-1.593-4.586-4.777 0-2.489 1.347-4.18 3.267-5.01 1.662-.73 3.984-.862 5.762-1.062v-.398c0-.73.057-1.592-.373-2.222-.373-.565-1.09-.797-1.72-.797-1.169 0-2.207.599-2.463 1.84-.053.277-.254.55-.532.565l-2.97-.322c-.25-.057-.529-.258-.457-.642.683-3.604 3.937-4.692 6.852-4.692 1.491 0 3.44.398 4.615 1.526 1.49 1.393 1.347 3.252 1.347 5.276v4.774c0 1.437.596 2.067 1.156 2.84.196.28.24.611-.01.815-.625.525-1.737 1.49-2.349 2.036l-.008-.007zm-3.088-7.473c0 1.195.028 2.189-.574 3.251-.487.862-1.261 1.394-2.12 1.394-1.176 0-1.864-.897-1.864-2.224 0-2.61 2.341-3.084 4.558-3.084v.663zM12.117 17.417a.633.633 0 0 1-.723.071c-1.018-.846-1.2-1.237-1.756-2.042-1.683 1.713-2.874 2.228-5.052 2.228C2.006 17.674 0 16.08 0 12.897c0-2.489 1.347-4.18 3.267-5.01 1.662-.73 3.985-.862 5.761-1.062v-.398c0-.73.058-1.592-.372-2.222-.373-.565-1.09-.797-1.72-.797-1.168 0-2.208.599-2.462 1.84-.053.277-.255.55-.533.565L.971 5.49c-.25-.057-.53-.258-.457-.642C1.197 1.245 4.45.157 7.366.157c1.49 0 3.44.398 4.615 1.526 1.49 1.393 1.347 3.252 1.347 5.276v4.774c0 1.437.596 2.067 1.156 2.84.195.28.24.611-.01.815a130.41 130.41 0 0 0-2.35 2.036l-.007-.007zM9.028 9.944c0 1.195.029 2.189-.573 3.251-.487.862-1.26 1.394-2.12 1.394-1.175 0-1.864-.897-1.864-2.224 0-2.61 2.341-3.084 4.557-3.084v.663z"></path>
    </g>
    <rect width="99" height="72"></rect>
  </g>
</svg>