<svg xmlns="http://www.w3.org/2000/svg" width="110" height="72" viewBox="0 0 110 72" >
  <g fill="none" fill-rule="evenodd">
    <path id="logo" fill="#000" d="M73.355 47.667a.475.475 0 0 1-.497-.497V32.588h-4.951a.475.475 0 0 1-.498-.498v-2.01c0-.295.203-.498.498-.498h13.18c.294 0 .497.203.497.497v2.011a.475.475 0 0 1-.497.498h-4.951V47.17a.475.475 0 0 1-.498.497h-2.283zm13.812-2.441c-1.493 0-2.759-1.108-2.759-2.668 0-1.583.905-2.374 2.307-3.165l3.662 3.934c-.791 1.198-1.764 1.899-3.21 1.899zm1.017-13.249c1.176 0 1.763.77 1.763 1.697 0 .994-.678 1.56-2.283 2.486-.927-.995-1.333-1.673-1.333-2.442 0-.994.678-1.74 1.853-1.74zM98.2 47.034l-3.82-4.137 2.532-4.34c.226-.384.022-.634-.34-.634h-2.193c-.361 0-.565.113-.745.407l-1.425 2.488-2.532-2.736c1.718-.95 3.346-2.216 3.346-4.476 0-2.645-1.854-4.431-4.883-4.431-2.962 0-4.928 1.92-4.928 4.725 0 1.107.475 2.373 1.514 3.571-2.125 1.176-3.527 2.577-3.527 5.2 0 3.414 2.6 5.403 5.901 5.403 2.667 0 4.273-1.153 5.425-2.69l1.718 1.899c.25.294.453.384.838.384h2.87c.362 0 .543-.316.25-.633zm-39.58-6.646l2.623-7.46 2.6 7.46h-5.223zm10.988 6.691L63.48 30.033c-.113-.316-.339-.451-.678-.451h-3.03c-.338 0-.542.135-.655.451L52.991 47.08c-.114.294.09.588.384.588h2.215c.34 0 .542-.158.655-.475l1.335-3.842h7.302l1.334 3.842c.112.317.316.475.655.475h2.352c.316 0 .497-.294.384-.588zm34.447.588a.475.475 0 0 0 .498-.497V32.588h4.95a.475.475 0 0 0 .498-.498v-2.01a.475.475 0 0 0-.497-.498h-13.18a.474.474 0 0 0-.498.497v2.011c0 .295.203.498.497.498h4.952V47.17c0 .294.204.497.497.497h2.283zm-95.31 8.798a22.58 22.58 0 0 0 13.864 4.751c5.712 0 10.92-2.12 14.895-5.604.047-.042.023-.071-.024-.042-1.783 1.191-6.867 3.792-14.87 3.792-6.956 0-11.352-1.552-13.834-2.938-.048-.024-.066.011-.03.04zm15.399 1.155c5.563 0 11.677-1.516 15.333-4.52 1-.818 1.955-1.908 2.808-3.371.491-.842.971-1.843 1.362-2.826.018-.047-.011-.071-.047-.018-3.4 5.006-13.247 8.128-23.414 8.128-7.187 0-14.918-2.298-17.946-6.689-.029-.04-.059-.023-.041.024 2.82 5.996 11.375 9.272 21.945 9.272zm-6.079-9.947c-11.57 0-17.027-5.392-18.017-9.07-.012-.054-.047-.042-.047.005 0 1.238.124 2.838.338 3.899.1.515.521 1.327 1.137 1.972 2.803 2.921 9.788 7.015 21.886 7.015 16.482 0 20.25-5.492 21.02-7.299.551-1.292.835-3.626.835-5.587 0-.474-.011-.853-.03-1.226 0-.06-.035-.065-.046-.006-.824 4.42-14.907 10.297-27.076 10.297zM2.18 28.91C1.517 30.225.782 32.447.563 33.596c-.095.492-.054.729.118 1.096 1.387 2.945 8.401 7.655 24.765 7.655 9.983 0 17.738-2.453 18.994-6.932.231-.824.243-1.695-.053-2.868-.332-1.31-.954-2.838-1.481-3.91-.018-.035-.048-.03-.041.012.195 5.871-16.175 9.657-24.434 9.657-8.946 0-16.41-3.566-16.41-8.07 0-.432.088-.864.2-1.314.013-.042-.023-.048-.04-.012zm35.358-7.21a.914.914 0 0 1 .142.52c0 2.513-7.684 6.956-19.918 6.956-8.987 0-10.67-3.335-10.67-5.456 0-.759.29-1.535.93-2.323.035-.047.006-.065-.036-.03a22.675 22.675 0 0 0-3.181 3.307c-.45.568-.729 1.072-.729 1.374 0 4.396 11.02 7.584 21.323 7.584 10.978 0 15.878-3.585 15.878-6.737 0-1.125-.439-1.783-1.558-3.057a26.591 26.591 0 0 0-2.145-2.168c-.036-.03-.06-.006-.036.03zm-3.365-2.513A22.347 22.347 0 0 0 22.608 16a22.444 22.444 0 0 0-11.725 3.282c-1.019.628-1.593 1.132-1.593 1.778 0 1.907 4.455 3.957 12.358 3.957 7.82 0 13.888-2.245 13.888-4.408 0-.515-.45-.876-1.363-1.422z"></path>
    <rect width="110" height="72"></rect>
  </g>
</svg>