<svg xmlns="http://www.w3.org/2000/svg" width="90" height="72" viewBox="0 0 90 72" >
  <g fill="none" fill-rule="evenodd">
    <g id="logo" fill="#000" transform="translate(0 30)">
      <path d="M45.914 23.05c.267 0 .492.1.67.298.176.197.254.44.23.718-.015.18-.074.352-.176.508a1.06 1.06 0 0 1-.897.49.934.934 0 0 1-.485-.128.834.834 0 0 1-.327-.362.967.967 0 0 1-.09-.508 1.09 1.09 0 0 1 .353-.718 1.03 1.03 0 0 1 .722-.298m.035-.396c-.412 0-.771.15-1.067.447a1.51 1.51 0 0 0-.45.959c-.033.37.07.698.306.974s.563.417.971.417c.408 0 .757-.14 1.04-.417.284-.276.444-.605.475-.974a1.283 1.283 0 0 0-.288-.961c-.245-.295-.577-.445-.987-.445M74.911 23.078c.268 0 .493.1.67.297a.92.92 0 0 1 .231.72c-.015.179-.075.35-.176.506a1.06 1.06 0 0 1-.897.49.935.935 0 0 1-.485-.128.834.834 0 0 1-.328-.362.965.965 0 0 1-.089-.507 1.09 1.09 0 0 1 .352-.72 1.03 1.03 0 0 1 .722-.296m.035-.397c-.412 0-.77.15-1.066.448a1.51 1.51 0 0 0-.451.958c-.032.37.071.698.307.974.236.277.563.417.971.417.407 0 .757-.14 1.04-.417.284-.276.443-.605.475-.974a1.283 1.283 0 0 0-.288-.96c-.245-.296-.577-.446-.988-.446M50.462 15.027c-.34.153-1.493.497-1.762.527-.425.046-.874.06-.874.06h-4.992s-.095.009-.15-.063c-.052-.073-.04-.165-.04-.165l.52-6.183.54-6.182s.002-.093.067-.165c.067-.071.16-.064.16-.064h4.992s.446.014.864.061c.265.03 1.359.375 1.672.527 2.189 1.082 3.398 3.21 3.182 5.823-.232 2.614-1.805 4.742-4.179 5.824m5.25-11.782C54.568 1.702 52.901.686 50.86.206a7.318 7.318 0 0 0-1.022-.148c-.383-.032-.798-.032-.798-.032l-4.718.015h-2.7v.003a.386.386 0 0 0-.357.35l-.748 8.81-.76 8.81a.313.313 0 0 0 .296.349v.002h2.701l4.715.016s.415 0 .803-.031a7.969 7.969 0 0 0 1.047-.15c2.124-.48 3.965-1.495 5.374-3.039a10.214 10.214 0 0 0 2.598-5.958c.185-2.214-.374-4.33-1.579-5.958M61.78 4.26h-1.7c-.297 0-.557.227-.58.503l-1.054 12.31c-.002.03 0 .062.002.094.01.661.57 1.178 1.276 1.178.708 0 1.356-.517 1.479-1.178a.634.634 0 0 0 .018-.095l1.054-12.309c.023-.276-.199-.504-.494-.504M61.066 2.66c.757 0 1.418-.574 1.48-1.284.06-.71-.503-1.284-1.26-1.284-.756 0-1.418.574-1.479 1.284-.06.71.504 1.285 1.26 1.285M77.488 15.02c-.34.152-1.491.496-1.76.526-.426.046-.873.06-.873.06h-4.987s-.094.009-.148-.063c-.053-.072-.04-.165-.04-.165l.518-6.174.54-6.175s.002-.092.067-.164c.066-.073.16-.064.16-.064H75.95s.445.014.862.06c.265.03 1.358.374 1.67.526 2.186 1.082 3.393 3.207 3.178 5.817-.231 2.609-1.802 4.735-4.173 5.816M82.73 3.253C81.59 1.712 79.923.698 77.884.218a7.373 7.373 0 0 0-1.02-.149c-.383-.03-.796-.03-.796-.03l-4.713.014h-2.697v.003a.385.385 0 0 0-.355.348l-.748 8.8-.759 8.799a.313.313 0 0 0 .296.348v.003h2.697l4.71.015s.414 0 .802-.031a7.93 7.93 0 0 0 1.045-.149c2.12-.48 3.96-1.493 5.367-3.035a10.203 10.203 0 0 0 2.595-5.95c.184-2.212-.374-4.325-1.577-5.951M88.857 4.21h-1.701c-.297 0-.556.228-.58.504l-1.053 12.309c-.002.03 0 .062.002.096.01.66.57 1.177 1.276 1.177.707 0 1.355-.517 1.479-1.178a.634.634 0 0 0 .018-.095l1.053-12.309c.024-.276-.198-.504-.494-.504M88.143 2.612c.756 0 1.418-.575 1.479-1.285.06-.71-.502-1.284-1.26-1.284-.755 0-1.417.574-1.478 1.284-.06.71.503 1.285 1.259 1.285M43.84 25.388a.072.072 0 0 1-.016.041.09.09 0 0 1-.044.028.538.538 0 0 1-.08.018.854.854 0 0 1-.124.007.84.84 0 0 1-.12-.007.425.425 0 0 1-.077-.018.07.07 0 0 1-.038-.028.067.067 0 0 1-.01-.041l.284-3.31h-.006l-1.6 3.307a.109.109 0 0 1-.029.035.14.14 0 0 1-.049.025.315.315 0 0 1-.075.015.98.98 0 0 1-.209-.002.356.356 0 0 1-.072-.015.137.137 0 0 1-.044-.026.072.072 0 0 1-.02-.032l-1.037-3.307h-.002l-.284 3.31a.076.076 0 0 1-.016.041.089.089 0 0 1-.045.028.524.524 0 0 1-.08.018.884.884 0 0 1-.126.007.832.832 0 0 1-.12-.007.42.42 0 0 1-.078-.018c-.018-.006-.03-.016-.036-.028a.067.067 0 0 1-.007-.041l.298-3.494c.007-.083.035-.14.082-.177a.247.247 0 0 1 .152-.052h.311c.064 0 .12.006.167.017a.354.354 0 0 1 .122.056c.034.025.06.058.081.097.02.04.038.085.052.138l.891 2.734h.015l1.34-2.725a.92.92 0 0 1 .085-.15.445.445 0 0 1 .094-.098.342.342 0 0 1 .109-.053.519.519 0 0 1 .133-.016h.328c.03 0 .058.004.084.013a.154.154 0 0 1 .066.041c.017.019.03.042.04.07.01.03.013.064.01.105l-.3 3.494zM50.199 23.216a.997.997 0 0 1 1.07-.141.78.78 0 0 1 .303.245.92.92 0 0 1 .145.366H49.88c.083-.207.19-.365.319-.47m1.664 1.064c-.067 0-.173.087-.173.087l-.018.027a1.744 1.744 0 0 1-.307.356c-.09.072-.198.13-.322.174a1.145 1.145 0 0 1-.379.066.816.816 0 0 1-.639-.276c-.156-.175-.23-.401-.22-.673h2.326l.002-.036c.028-.356-.045-.66-.216-.898-.24-.34-.589-.51-1.038-.51-.437 0-.805.167-1.094.498-.227.26-.357.56-.386.892-.03.353.066.674.284.954.22.28.549.423.979.423.192 0 .37-.03.53-.088.159-.06.307-.146.44-.258.131-.112.254-.262.363-.444l.013-.02a.21.21 0 0 0 .026-.082.171.171 0 0 0-.17-.192M61.562 24.579a1.054 1.054 0 0 1-.398.36c-.331.178-.707.18-1 0a.88.88 0 0 1-.336-.376.968.968 0 0 1-.093-.507c.014-.177.075-.347.178-.506.104-.16.238-.284.397-.372.16-.088.332-.132.512-.132.28 0 .511.098.687.292.174.194.25.439.226.727-.017.19-.074.363-.173.514zm.64-1.655a.178.178 0 0 0-.177-.165.22.22 0 0 0-.205.165h-.01l-.017.207a1.17 1.17 0 0 0-.379-.338 1.213 1.213 0 0 0-.585-.14c-.379 0-.72.138-1.013.41-.292.27-.457.6-.49.982-.033.39.074.724.317.996.244.272.56.41.936.41.212 0 .415-.045.601-.132.161-.076.313-.185.453-.324l-.015.185h.001a.182.182 0 0 0 .182.204c.11 0 .206-.091.216-.204l.193-2.256h-.007zM69.345 24.623a1.054 1.054 0 0 1-.398.36c-.331.177-.708.18-1.002 0a.883.883 0 0 1-.335-.377.968.968 0 0 1-.093-.507c.015-.176.075-.347.179-.506a1.11 1.11 0 0 1 .396-.371c.16-.088.333-.133.513-.133.28 0 .511.099.686.292.175.195.25.44.226.728-.016.19-.074.362-.172.514zm.648-1.655c-.01-.093-.07-.164-.185-.165-.097 0-.182.042-.215.165l-.017.207a1.17 1.17 0 0 0-.38-.338 1.214 1.214 0 0 0-.585-.14c-.378 0-.72.138-1.012.409-.293.27-.458.601-.49.983a1.27 1.27 0 0 0 .317.996c.244.272.558.41.936.41.212 0 .414-.045.6-.133.162-.075.314-.184.454-.323l-.016.185h.001a.183.183 0 0 0 .182.204c.11 0 .207-.092.216-.204l.194-2.256zM80.91 22.891l.001-.007c-.097-.09-.218-.096-.314-.11-.163-.022-.47.067-.674.333l.023-.266h-.006c-.003-.104-.08-.186-.184-.186a.229.229 0 0 0-.217.186h-.005l-.211 2.474h.004c.002.106.079.19.185.19a.229.229 0 0 0 .218-.19h.004l.062-.723c.038-.444.084-.743.137-.886a.929.929 0 0 1 .262-.41.5.5 0 0 1 .313-.128.42.42 0 0 1 .16.042.17.17 0 0 0 .088.027c.106 0 .2-.088.21-.197a.178.178 0 0 0-.057-.149M49.24 22.72l-.026-.024c-.006-.004-.012-.005-.019-.009a.25.25 0 0 0-.029-.013.583.583 0 0 0-.258-.07.726.726 0 0 0-.384.116c-.098.06-.197.147-.293.259l.026-.309h-.003a.186.186 0 0 0-.186-.195.229.229 0 0 0-.22.195h-.002l-.22 2.569-.002.005v.005s-.016.19.188.206c.185.015.225-.211.225-.211l.07-.823c.039-.444.085-.743.138-.886a.934.934 0 0 1 .261-.41.5.5 0 0 1 .313-.128c.044 0 .098.015.16.043l.027.011.002-.002a.19.19 0 0 0 .065.013c.108 0 .204-.09.212-.2a.185.185 0 0 0-.045-.142M64.915 24.101c.03-.356.016-.622-.043-.793a.813.813 0 0 0-.312-.414.906.906 0 0 0-.525-.153c-.197 0-.386.046-.56.137a1.558 1.558 0 0 0-.426.332l.017-.199h-.006a.181.181 0 0 0-.182-.203.224.224 0 0 0-.217.203l-.193 2.257h.005a.18.18 0 0 0 .181.183c.104 0 .193-.081.213-.183h.006l.067-.782c.029-.339.065-.573.107-.697a1.02 1.02 0 0 1 .347-.478.87.87 0 0 1 .542-.193c.169 0 .304.042.4.123.097.081.157.205.18.368.016.097.012.296-.013.59l-.09 1.046h.006l-.001.007c-.01.11.07.199.178.199.108 0 .202-.09.212-.2v-.006h.01l.097-1.144zM78.775 22.746a.233.233 0 0 0-.225.212v.01l-.09 1.072c-.028.318-.062.529-.103.625a.744.744 0 0 1-.286.337.851.851 0 0 1-.47.128.762.762 0 0 1-.454-.132.577.577 0 0 1-.23-.357c-.022-.108-.02-.31.004-.601l.093-1.08v-.002a.185.185 0 0 0-.185-.207.228.228 0 0 0-.22.207l-.096 1.12c-.031.372-.012.656.058.843.07.19.19.339.357.445.166.105.382.158.64.158.26 0 .485-.053.667-.158.183-.106.328-.255.43-.44.102-.186.17-.463.2-.824l.098-1.144a.19.19 0 0 0-.188-.212M84.79 23.307a1.01 1.01 0 0 1 1.082-.142c.13.062.233.146.307.248a.934.934 0 0 1 .145.37h-1.855a1.16 1.16 0 0 1 .321-.476m1.661 1.098a.21.21 0 0 0-.167.093h-.005a1.73 1.73 0 0 1-.31.359c-.09.073-.2.133-.325.177a1.152 1.152 0 0 1-.383.067.825.825 0 0 1-.646-.28c-.158-.176-.233-.405-.222-.68h2.35l.002-.035c.028-.362-.046-.667-.218-.909-.243-.342-.595-.516-1.05-.516-.44 0-.813.17-1.105.504-.23.263-.36.566-.39.902-.03.357.066.68.287.964.222.283.554.427.989.427.194 0 .375-.03.536-.09.16-.059.31-.146.444-.26.134-.113.258-.264.367-.448a.21.21 0 0 0 .022-.077.176.176 0 0 0-.176-.198M83.625 24.036c.03-.356.017-.623-.043-.794a.812.812 0 0 0-.312-.413.905.905 0 0 0-.525-.153c-.197 0-.385.046-.561.136a1.56 1.56 0 0 0-.425.332l.017-.194.002-.008v-.008l.002-.023h-.005a.183.183 0 0 0-.183-.178.227.227 0 0 0-.214.178h-.003l-.002.018c0 .005-.003.009-.004.013l.002.013-.198 2.322a.184.184 0 0 0 .184.206c.111 0 .21-.092.22-.206l.074-.857c.028-.338.064-.573.106-.696.065-.189.182-.35.347-.478a.869.869 0 0 1 .541-.193.61.61 0 0 1 .402.123c.096.08.156.205.18.368.016.097.01.295-.014.59l-.098 1.142h.002a.185.185 0 0 0 .184.206.227.227 0 0 0 .219-.206l.105-1.24zM89.36 22.454c.009-.11-.071-.2-.179-.2a.216.216 0 0 0-.191.124h-.001l-1.017 1.947-.709-1.948-.003.001a.175.175 0 0 0-.161-.106.221.221 0 0 0-.214.201c-.001.015.003.028.005.042l-.009.003.832 2.291-.429.793a.217.217 0 0 0-.037.099.183.183 0 0 0 .183.204.22.22 0 0 0 .204-.157h.001l1.72-3.243-.01-.003c.006-.016.013-.031.014-.048M58.92 23.16a.816.816 0 0 0-.313-.413.905.905 0 0 0-.525-.153 1.21 1.21 0 0 0-.558.136 1.589 1.589 0 0 0-.427.333l.09-1.204c.008-.094-.08-.194-.176-.194a.222.222 0 0 0-.208.166l-.296 3.391s-.02.229.18.229c.217 0 .224-.229.224-.229l.076-.884c.03-.34.065-.574.107-.697.065-.188.181-.349.347-.477a.868.868 0 0 1 .541-.193c.17 0 .304.041.4.123a.587.587 0 0 1 .184.368c.014.097.009.295-.017.59l-.104 1.184c.019.18.107.215.19.215.177 0 .217-.206.217-.206l.11-1.291c.031-.358.017-.625-.043-.795M56.053 22.66h-.395l.07-.786a.187.187 0 0 0-.186-.21.23.23 0 0 0-.222.21l-.066.787h-.459v.003h-.001a.193.193 0 0 0-.188.176.157.157 0 0 0 .158.176v.003h.46l-.19 2.212s-.002.22.176.22c.194 0 .226-.193.226-.193l.191-2.24h.395s.151-.015.166-.178c.013-.16-.135-.18-.135-.18M72.828 21.82a.26.26 0 0 0-.18.072.264.264 0 0 0-.088.175.22.22 0 0 0 .057.173c.044.047.1.072.168.072a.258.258 0 0 0 .18-.072.262.262 0 0 0 .088-.173.22.22 0 0 0-.057-.175.217.217 0 0 0-.168-.072M72.96 22.787a.192.192 0 0 0-.197-.206.227.227 0 0 0-.16.064.227.227 0 0 0-.073.142c-.001.004-.004.007-.004.01l-.19 2.192a1.872 1.872 0 0 1-.048.325.53.53 0 0 1-.085.182c-.09.115-.203.126-.243.131 0 0-.287.004-.295.02-.002.003-.079.052-.088.158a.165.165 0 0 0 .118.18s.28.002.303 0c0 0 .165 0 .286-.055.096-.044.18-.1.246-.178a.878.878 0 0 0 .16-.293c.039-.118.067-.275.083-.468l.189-2.193-.002-.01M15.789 20.379c5.368-.173 9.626-4.539 9.688-9.961V5.755h5.907v5.155c-.115 8.385-7.246 15-15.595 15.19v-.002C7.3 26.045.117 19.383 0 10.91V1.642C-.013.694.59.08 1.502.094L25.474.093v5.66l-18.797.005c-.483 0-.772.3-.772.789v3.776c.063 5.495 4.394 10 9.883 10.056z"></path>
      <path d="M25.474.093L1.502.094h-.03C.577.093-.013.704 0 1.641v9.267C.117 19.382 7.301 26.045 15.79 26.1c8.35-.19 15.48-6.804 15.596-15.188V5.755h-5.908v4.663c-.062 5.422-4.32 9.788-9.688 9.96h-.001c-5.49-.055-9.82-4.56-9.883-10.055V6.547c0-.489.29-.79.771-.79l18.798-.003V.093zm-.433.443V5.31l-18.365.005c-.72 0-1.204.495-1.204 1.232v3.781a10.677 10.677 0 0 0 3.034 7.375 10.253 10.253 0 0 0 7.24 3.118l.01.002.047-.002c5.602-.18 10.042-4.747 10.107-10.403v-4.22h5.041v4.706c-.053 3.897-1.677 7.573-4.573 10.35a15.79 15.79 0 0 1-10.548 4.402h-.039a15.668 15.668 0 0 1-10.74-4.319C2.128 18.557.488 14.851.433 10.91V1.636c-.005-.34.09-.621.275-.813.181-.188.445-.287.764-.287h23.57z"></path>
      <path d="M15.789 20.379c5.368-.173 9.626-4.539 9.688-9.961V5.755h5.907v5.155c-.115 8.385-7.246 15-15.595 15.19v-.002C7.3 26.045.117 19.383 0 10.91V1.642C-.013.694.59.08 1.502.094L25.474.093v5.66l-18.797.005c-.483 0-.772.3-.772.789v3.776c.063 5.495 4.394 10 9.883 10.056z"></path>
    </g>
    <rect width="90" height="72"></rect>
  </g>
</svg>