<svg xmlns="http://www.w3.org/2000/svg" width="106" height="72" viewBox="0 0 106 72" >
  <g fill="none" fill-rule="evenodd">
    <g id="logo" fill="#000" transform="translate(0 22)">
      <path d="M26.116 12.419H13.76v3.644h8.762c-.433 5.11-4.71 7.29-8.747 7.29-5.165 0-9.673-4.04-9.673-9.702 0-5.516 4.297-9.765 9.684-9.765 4.157 0 6.606 2.634 6.606 2.634l2.567-2.642S19.665.232 13.656.232C6.004.232.085 6.652.085 13.586c0 6.794 5.568 13.42 13.766 13.42 7.21 0 12.488-4.91 12.488-12.17 0-1.533-.223-2.418-.223-2.418v.001zM36.236 9.78c-5.07 0-8.702 3.94-8.702 8.534 0 4.663 3.524 8.676 8.762 8.676 4.742 0 8.627-3.603 8.627-8.575 0-5.7-4.52-8.635-8.687-8.635zm.05 3.38c2.494 0 4.856 2.003 4.856 5.232 0 3.16-2.352 5.22-4.867 5.22-2.763 0-4.942-2.2-4.942-5.245 0-2.98 2.153-5.207 4.954-5.207zM55.163 9.78c-5.07 0-8.702 3.94-8.702 8.534 0 4.663 3.524 8.676 8.762 8.676 4.742 0 8.627-3.603 8.627-8.575 0-5.7-4.52-8.635-8.687-8.635zm.05 3.38c2.494 0 4.856 2.003 4.856 5.232 0 3.16-2.352 5.22-4.867 5.22-2.763 0-4.942-2.2-4.942-5.245 0-2.98 2.152-5.207 4.954-5.207zM73.728 9.789c-4.653 0-8.311 4.051-8.311 8.598 0 5.18 4.24 8.615 8.23 8.615 2.468 0 3.78-.974 4.748-2.091v1.696c0 2.97-1.813 4.747-4.55 4.747-2.645 0-3.97-1.954-4.432-3.063l-3.327 1.382c1.18 2.481 3.556 5.068 7.786 5.068 4.627 0 8.153-2.896 8.153-8.972V10.306h-3.63v1.458c-1.116-1.196-2.642-1.975-4.667-1.975zm.337 3.373c2.28 0 4.623 1.937 4.623 5.243 0 3.362-2.337 5.214-4.674 5.214-2.48 0-4.789-2.002-4.789-5.182 0-3.304 2.397-5.275 4.84-5.275zM98.163 9.768c-4.39 0-8.075 3.472-8.075 8.594 0 5.42 4.108 8.635 8.496 8.635 3.663 0 5.91-1.992 7.252-3.777l-2.992-1.979c-.777 1.198-2.075 2.369-4.242 2.369-2.433 0-3.552-1.325-4.245-2.608l11.607-4.788-.602-1.403c-1.122-2.748-3.737-5.042-7.199-5.042zm.15 3.31c1.582 0 2.72.836 3.204 1.838l-7.752 3.22c-.334-2.493 2.043-5.058 4.549-5.058z"></path>
      <polygon points="84.554 26.486 88.367 26.486 88.367 1.122 84.554 1.122 84.554 26.486"></polygon>
    </g>
    <rect width="106" height="72"></rect>
  </g>
</svg>