<svg xmlns="http://www.w3.org/2000/svg" width="86" height="72" viewBox="0 0 86 72" xmlns:xlink="http://www.w3.org/1999/xlink" >
  <defs>
    <polygon id="a" points="0 31.101 85.933 31.101 85.933 0 0 0"></polygon>
  </defs>
  <g fill="none" fill-rule="evenodd" transform="translate(0 -.76)">
    <g transform="translate(0 18)">
      <path id="logo" fill="#000" d="M17.775 24.71h24.647c-.034.497-.506 1.857-.729 2.173H17.775V24.71zM17.775 4.118h23.959c.206.358.672 1.712.73 2.174H17.776V4.118zM22.219 16.473h17.097c.557.377 1.59 1.617 2.002 2.174h-19.1v-2.174zM35.551 22.765h7.127c.017-.568-.213-1.737-.39-2.173h-6.737v2.173zM22.219 14.529h17.123c.557-.379 1.58-1.618 1.994-2.174H22.22v2.174zM35.551 8.237h7.1c-.002.504-.196 1.737-.371 2.174h-6.729V8.237zM17.775 28.828H40.06c-1.974 1.618-3.718 2.174-6.778 2.174H17.775v-2.174zM17.775 2.174h22.286C38.086.556 36.342 0 33.283 0H17.775v2.174z"></path>
      <mask id="b" fill="white">
        <use xlink:href="#a"></use>
      </mask>
      <polygon id="logo" fill="#000" points="0 2.174 15.553 2.174 15.553 0 0 0" mask="url(#b)"></polygon>
      <polygon id="logo" fill="#000" points="0 6.292 15.553 6.292 15.553 4.118 0 4.118" mask="url(#b)"></polygon>
      <polygon id="logo" fill="#000" points="0 26.883 15.553 26.883 15.553 24.709 0 24.709" mask="url(#b)"></polygon>
      <polygon id="logo" fill="#000" points="4.444 22.766 11.11 22.766 11.11 20.592 4.444 20.592" mask="url(#b)"></polygon>
      <polygon id="logo" fill="#000" points="4.444 18.647 11.11 18.647 11.11 16.473 4.444 16.473" mask="url(#b)"></polygon>
      <polygon id="logo" fill="#000" points="4.444 14.529 11.11 14.529 11.11 12.355 4.444 12.355" mask="url(#b)"></polygon>
      <polygon id="logo" fill="#000" points="4.444 10.41 11.11 10.41 11.11 8.237 4.444 8.237" mask="url(#b)"></polygon>
      <polygon id="logo" fill="#000" points="22.219 22.766 28.884 22.766 28.884 20.592 22.219 20.592" mask="url(#b)"></polygon>
      <polygon id="logo" fill="#000" points="22.219 10.41 28.884 10.41 28.884 8.237 22.219 8.237" mask="url(#b)"></polygon>
      <polygon id="logo" fill="#000" points="59.131 22.765 65.297 22.765 66.079 20.592 58.349 20.592" mask="url(#b)"></polygon>
      <polygon id="logo" fill="#000" points="57.648 18.647 66.78 18.647 67.562 16.473 56.866 16.473" mask="url(#b)"></polygon>
      <polygon id="logo" fill="#000" points="0 31.001 15.553 31.001 15.553 28.828 0 28.828" mask="url(#b)"></polygon>
      <polygon id="logo" fill="#000" points="62.098 31.002 62.33 31.002 63.114 28.828 61.315 28.828" mask="url(#b)"></polygon>
      <polygon id="logo" fill="#000" points="48.883 22.766 55.549 22.766 55.549 20.592 48.883 20.592" mask="url(#b)"></polygon>
      <polygon id="logo" fill="#000" points="48.883 18.647 55.549 18.647 55.549 16.473 48.883 16.473" mask="url(#b)"></polygon>
      <polygon id="logo" fill="#000" points="44.439 31.001 55.548 31.001 55.548 28.828 44.439 28.828" mask="url(#b)"></polygon>
      <polygon id="logo" fill="#000" points="44.439 26.883 55.548 26.883 55.548 24.709 44.439 24.709" mask="url(#b)"></polygon>
      <polygon id="logo" fill="#000" points="60.615 26.883 63.814 26.883 64.596 24.71 59.832 24.71" mask="url(#b)"></polygon>
      <polygon id="logo" fill="#000" points="68.881 22.766 75.546 22.766 75.546 20.592 68.881 20.592" mask="url(#b)"></polygon>
      <polygon id="logo" fill="#000" points="68.881 18.647 75.546 18.647 75.546 16.473 68.881 16.473" mask="url(#b)"></polygon>
      <polygon id="logo" fill="#000" points="68.88 31.001 79.99 31.001 79.99 28.828 68.88 28.828" mask="url(#b)"></polygon>
      <polygon id="logo" fill="#000" points="68.881 26.883 79.99 26.883 79.99 24.709 68.881 24.709" mask="url(#b)"></polygon>
      <polygon id="logo" fill="#000" points="59.997 8.237 48.882 8.237 48.882 10.411 60.794 10.411" mask="url(#b)"></polygon>
      <polygon id="logo" fill="#000" points="62.923 12.355 62.214 14.305 61.506 12.355 48.883 12.355 48.883 14.529 55.549 14.529 55.549 12.816 56.165 14.529 68.263 14.529 68.88 12.816 68.88 12.828 68.881 12.828 68.881 14.529 75.546 14.529 75.546 12.355" mask="url(#b)"></polygon>
      <polygon id="logo" fill="#000" points="56.979 .001 44.439 .001 44.439 2.174 57.776 2.174" mask="url(#b)"></polygon>
      <polygon id="logo" fill="#000" points="58.488 4.118 44.439 4.118 44.439 6.292 59.285 6.292" mask="url(#b)"></polygon>
      <polygon id="logo" fill="#000" points="64.431 8.237 75.546 8.237 75.546 10.411 63.634 10.411" mask="url(#b)"></polygon>
      <polygon id="logo" fill="#000" points="67.449 .001 79.99 .001 79.99 2.174 66.653 2.174" mask="url(#b)"></polygon>
      <polygon id="logo" fill="#000" points="65.94 4.118 79.989 4.118 79.989 6.292 65.143 6.292" mask="url(#b)"></polygon>
      <path id="logo" fill="#000" d="M84.127 29.275c.278 0 .685.045.685-.342 0-.296-.25-.332-.49-.332h-.561v.674h.366zm.92 1.06h-.287l-.56-.875h-.44v.876h-.24v-1.901h.856c.518 0 .695.188.695.503 0 .374-.268.512-.616.522l.593.876zm.597-.951c0-.828-.62-1.475-1.471-1.475-.855 0-1.48.647-1.48 1.475 0 .835.625 1.482 1.48 1.482.85 0 1.471-.647 1.471-1.482zm-3.229 0c0-.935.787-1.7 1.758-1.7.968 0 1.75.765 1.75 1.7 0 .943-.782 1.707-1.75 1.707-.971 0-1.758-.764-1.758-1.707z" mask="url(#b)"></path>
    </g>
    <rect width="86" height="72" y=".76"></rect>
  </g>
</svg>