<svg xmlns="http://www.w3.org/2000/svg" width="190" height="72" viewBox="0 0 190 72" >
  <g fill="none" fill-rule="evenodd">
    <g id="logo" fill="#000" transform="translate(0 15)">
      <path d="M40.577 33.255L26.09 20.923l-3.18-18.091c11.196.111 20.238 9.235 20.238 20.475 0 3.61-.934 7.003-2.572 9.948zm-.215.373l.106-.184.003.001-.107.184-.002-.001zM22.704 43.785c-7.441 0-13.954-3.983-17.53-9.937l17.06-6.693 18.011 6.675c-3.573 5.964-10.091 9.955-17.54 9.955zM4.91 33.395l.003-.002.114.2-.003.001-.114-.199zm17.323-30.56l-2.77 18.088-14.665 12.27a20.411 20.411 0 0 1-2.538-9.886c0-11.151 8.9-20.22 19.973-20.472zm.471-.006l.047.001v.003h-.18v-.002l.133-.002zm0-2.264C10.165.565 0 10.747 0 23.307S10.165 46.05 22.704 46.05c12.54 0 22.705-10.182 22.705-22.742S35.243.565 22.704.565z"></path>
      <g transform="translate(56.826 16.844)">
        <polygon points="84.853 9.786 84.853 8.628 89.761 8.628 89.761 9.786"></polygon>
        <path d="M3.254 1.61l-.44 11.606v.202c0 .983.285 1.185 1.826 1.299v.535c-1.12-.088-1.558-.114-2.17-.114-.611 0-1.05.026-2.195.114v-.535c1.532-.114 1.756-.29 1.8-1.5l.464-10.985v-.131C2.54 1.074 2.23.846.714.758V.197c.852.07 1.188.088 1.8.088.809 0 1.248-.027 2.083-.115L8.68 11.488 12.829.17c.99.088 1.447.115 2.11.115.551 0 .904-.027 1.731-.088v.561c-1.49.088-1.825.316-1.825 1.316v.158l.24 10.984c.026 1.211.216 1.387 1.8 1.5v.536c-1.386-.132-1.911-.176-2.747-.176-.835 0-1.36.044-2.747.176v-.535c1.49-.088 1.826-.334 1.826-1.386v-.115l-.198-11.59-3.625 9.976-.267.737-.31.825-.284.85-.242.738h-.327l-.24-.72-.31-.868-.31-.869-.268-.78-3.582-9.906zM22.603 14.7c-1.998 0-2.876-1.563-2.902-5.054h6.545c-.043-3.448-1.43-5.282-4.022-5.282-2.635 0-4.28 2.167-4.28 5.615 0 3.448 1.645 5.457 4.478 5.457 2.153 0 3.557-1.369 3.84-3.667h-.877c-.259 1.904-1.223 2.93-2.782 2.93zm-2.859-5.861c.224-2.571 1.05-3.896 2.463-3.896 1.43 0 2.153 1.255 2.282 3.896h-4.745zM27.555 5.189v-.404c1.248-.114 1.997-.245 2.901-.517.112.824.155 1.184.199 1.86v.245c.482-1.272 1.429-2.009 2.566-2.009 1.102 0 1.911.737 1.911 1.816 0 .65-.37 1.07-.921 1.07-.508 0-.904-.315-.904-.763 0-.044.026-.131.043-.22l.043-.227v-.202c0-.316-.267-.535-.663-.535-1.145 0-1.869 1.412-1.869 3.623v4.676c0 .966.224 1.141 1.559 1.211v.448c-1.206-.114-1.67-.132-2.437-.132-.792 0-1.249.026-2.463.132v-.448c1.343-.07 1.585-.245 1.585-1.21V6.284c-.026-.965-.13-1.07-1.275-1.096h-.275zM43.528 4.162v3.694h-.482c-.396-1.948-1.206-2.887-2.549-2.887-1.645 0-2.61 1.817-2.61 5.01 0 3.132.853 4.72 2.55 4.72 1.36 0 2.17-.982 2.437-2.956h.904c-.284 2.395-1.533 3.693-3.513 3.693-2.55 0-4.28-2.193-4.28-5.457 0-3.334 1.756-5.615 4.348-5.615.948 0 1.533.246 2.24.939l.593-1.14h.362zM49.986 14.7c-1.997 0-2.876-1.563-2.901-5.054h6.544c-.043-3.448-1.43-5.282-4.021-5.282-2.635 0-4.28 2.167-4.28 5.615 0 3.448 1.645 5.457 4.478 5.457 2.152 0 3.556-1.369 3.84-3.667h-.878c-.258 1.904-1.223 2.93-2.782 2.93zm-2.85-5.861c.224-2.571 1.05-3.896 2.463-3.896 1.43 0 2.153 1.255 2.282 3.896h-4.745zM63.842 12.936V.02c-1.102.299-2.084.474-3.316.614v.378c1.387 0 1.56.158 1.56 1.316v3.913c-.81-1.343-1.448-1.746-2.636-1.746-2.35 0-3.995 2.263-3.995 5.483 0 3.22 1.67 5.483 4.064 5.483 1.249 0 2.11-.579 2.721-1.833.086.85.086.939.31 1.79.904-.29 1.275-.378 2.566-.536l.327-.043v-.378c-1.472-.052-1.601-.166-1.601-1.526zm-4.125 1.895c-1.584 0-2.411-1.676-2.411-4.878 0-3.246.766-4.834 2.35-4.834 1.628 0 2.464 1.702 2.464 4.992-.01 3.114-.827 4.72-2.403 4.72zM70.929 14.7c-1.998 0-2.876-1.563-2.902-5.054h6.544c-.043-3.448-1.43-5.282-4.021-5.282-2.635 0-4.28 2.167-4.28 5.615 0 3.448 1.645 5.457 4.478 5.457 2.153 0 3.556-1.369 3.84-3.667h-.878c-.25 1.904-1.223 2.93-2.781 2.93zm-2.85-5.861c.215-2.571 1.05-3.896 2.462-3.896 1.43 0 2.153 1.255 2.282 3.896h-4.745zM76.44 15.462v-3.737l.482-.026c.396 2.035 1.318 3.018 2.859 3.018 1.292 0 2.265-.869 2.265-2.01 0-.763-.414-1.272-1.49-1.763l-.835-.377-1.008-.474c-1.602-.763-2.11-1.386-2.11-2.685 0-1.763 1.361-2.974 3.29-2.974.852 0 1.49.202 2.239.72l.37-.921h.396v3.465h-.508c-.198-1.79-.921-2.64-2.308-2.64-1.162 0-2.066.806-2.066 1.86 0 .894.327 1.184 2.325 2.078l.921.404c1.67.737 2.265 1.456 2.265 2.772 0 1.878-1.473 3.22-3.54 3.22-1.007 0-1.8-.272-2.634-.939l-.526 1.01h-.387zM100.129 3.917c0-1.167-.482-2.194-1.318-2.843-.749-.561-1.601-.807-3.03-.807h-5.779v.561c1.585.088 1.8.272 1.8 1.474v10.853c0 1.21-.172 1.369-1.8 1.5v.535h5.554c1.628 0 2.506-.201 3.428-.78 1.102-.72 1.825-2.08 1.825-3.492 0-1.21-.508-2.308-1.36-2.974-.465-.36-.948-.562-1.731-.72 1.584-.596 2.41-1.737 2.41-3.307zM93.653.969h1.869c1.843 0 2.66.921 2.66 3 0 1.027-.24 1.764-.722 2.352-.483.561-1.077.737-2.308.737h-1.49V.968h-.009zm2.093 6.773c1.162 0 1.825.202 2.325.72.508.517.792 1.473.792 2.552 0 2.238-1.102 3.492-3.048 3.492h-.792c-1.163 0-1.361-.175-1.361-1.167V7.751h2.084v-.01zM107.25 14.7c-1.997 0-2.876-1.563-2.902-5.054h6.545c-.043-3.448-1.43-5.282-4.022-5.282-2.635 0-4.28 2.167-4.28 5.615 0 3.448 1.645 5.457 4.478 5.457 2.153 0 3.557-1.369 3.841-3.667h-.878c-.259 1.904-1.223 2.93-2.782 2.93zm-2.85-5.861c.224-2.571 1.05-3.896 2.463-3.896 1.43 0 2.153 1.255 2.282 3.896H104.4zM112.055 5.285v-.377c1.275-.175 2.024-.36 2.902-.675.112.517.172 1.096.224 1.947.792-1.21 1.688-1.746 2.962-1.746 1.318 0 2.463.693 2.902 1.79.216.535.328 1.167.328 2.01v5.368c0 .966.223 1.141 1.558 1.211v.448c-1.162-.114-1.602-.132-2.394-.132-.81 0-1.248.026-2.394.132v-.448c1.189-.044 1.473-.272 1.473-1.167V8.172c0-1.948-.568-2.729-1.972-2.729-1.49 0-2.282.965-2.282 2.799v5.413c0 .895.284 1.123 1.43 1.167v.447c-1.146-.114-1.585-.131-2.369-.131-.766 0-1.231.026-2.368.131v-.447c1.344-.07 1.559-.246 1.559-1.21V6.363c-.026-.92-.155-1.052-1.249-1.052-.086-.01-.198-.027-.31-.027zM123.784 15.19l5.95-9.975h-2.704c-1.43 0-1.782.316-2.566 2.325h-.44l.509-2.904h7.552l-5.976 9.975h2.566c1.49 0 2.11-.605 2.764-2.64h.465l-.568 3.22h-7.552z"></path>
      </g>
    </g>
    <rect width="190" height="73"></rect>
  </g>
</svg>