<svg xmlns="http://www.w3.org/2000/svg" width="136" height="72" viewBox="0 0 136 72" >
  <g fill="none" fill-rule="evenodd">
    <g id="logo" fill="#000" transform="translate(0 26)">
      <path d="M125.825 7.967l2.885 8.065h-5.866l2.98-8.065zm-3.097-3.143l-6.66 17.217h4.704l1.054-3.043h7.874l1.006 3.043h5.108l-6.717-17.217h-6.37zm-13.37 17.223h4.77V4.82h-4.77v17.227zM76.23 4.82l-3.98 13.653L68.436 4.82h-5.148l5.446 17.227h6.875L81.1 4.82h-4.868zM95.52 8.57h2.05c2.975 0 4.9 1.364 4.9 4.899 0 3.538-1.925 4.901-4.9 4.901h-2.05v-9.8zm-4.731-3.75v17.227h7.735c4.122 0 5.467-.7 6.923-2.267 1.028-1.1 1.692-3.516 1.692-6.158 0-2.42-.562-4.582-1.543-5.927-1.768-2.406-4.314-2.875-8.113-2.875h-6.694zm-45.201-.026v17.253h4.812v-13.1l3.728.002c1.235 0 2.114.314 2.71.961.754.82 1.062 2.143 1.062 4.562v7.575h4.662v-9.532c0-6.803-4.25-7.72-8.41-7.72h-8.564zm37.52.024l.003 17.23h4.77V4.817h-4.772z"></path>
      <path d="M4.118 11.757S7.763 6.27 15.04 5.703v-1.99C6.98 4.374 0 11.338 0 11.338s3.953 11.659 15.04 12.726v-2.115C6.904 20.903 4.118 11.757 4.118 11.757zM15.04 17.74v1.937c-6.15-1.118-7.856-7.639-7.856-7.639s2.953-3.337 7.856-3.877v2.125h-.01c-2.573-.316-4.584 2.136-4.584 2.136s1.127 4.13 4.594 5.318zm0-17.699v3.672c.236-.02.473-.035.71-.043 9.165-.315 15.134 7.666 15.134 7.666s-6.857 8.507-14.001 8.507c-.654 0-1.267-.062-1.843-.166v2.27c.492.063 1.003.101 1.535.101 6.648 0 11.456-3.464 16.112-7.563.77.631 3.93 2.164 4.581 2.836-4.427 3.78-14.743 6.828-20.591 6.828-.563 0-1.106-.034-1.637-.087v3.19h25.268V.042H15.04zm0 8.12V5.703c.234-.016.47-.03.71-.037 6.59-.211 10.913 5.777 10.913 5.777s-4.669 6.615-9.675 6.615c-.72 0-1.367-.119-1.948-.317v-7.454c2.565.316 3.08 1.473 4.623 4.095l3.43-2.95s-2.503-3.35-6.724-3.35c-.46 0-.899.032-1.329.08z" transform="translate(0 .042)"></path>
    </g>
    <rect width="136" height="73"></rect>
  </g>
</svg>